<?xml version="1.0" encoding="UTF-8" standalone="no"?>
<svg
   version="1.1"
   id="acessibilidade_onu"
   x="0px"
   y="0px"
   viewBox="0 0 1000.0949 1000.095"
   xml:space="preserve"
   sodipodi:docname="a11y.svg"
   width="1000.095"
   height="1000.095"
   inkscape:version="1.2.2 (b0a8486541, 2022-12-01)"
   xmlns:inkscape="http://www.inkscape.org/namespaces/inkscape"
   xmlns:sodipodi="http://sodipodi.sourceforge.net/DTD/sodipodi-0.dtd"
   xmlns="http://www.w3.org/2000/svg"
   xmlns:svg="http://www.w3.org/2000/svg"><defs
   id="defs3998" /><sodipodi:namedview
   id="namedview3996"
   pagecolor="#ffffff"
   bordercolor="#666666"
   borderopacity="1.0"
   inkscape:showpageshadow="2"
   inkscape:pageopacity="0.0"
   inkscape:pagecheckerboard="0"
   inkscape:deskcolor="#d1d1d1"
   showgrid="false"
   inkscape:zoom="0.37134109"
   inkscape:cx="331.23186"
   inkscape:cy="257.17595"
   inkscape:window-width="2560"
   inkscape:window-height="1382"
   inkscape:window-x="1920"
   inkscape:window-y="0"
   inkscape:window-maximized="1"
   inkscape:current-layer="acessibilidade_onu" />
	<style
   type="text/css"
   id="style3978">
		.c1 {fill: none;}
		.c2 {fill: #53C2EE;}
		.c1,.c2 {stroke: #000;stroke-miterlimit: 10;stroke-width: 32.8947px;}
	</style>
	<g
   id="limbs"
   class="c1"
   transform="translate(0.14748001,0.54819991)">
		<path
   id="arms"
   d="m 105.7,408.6 c 0,0 393.3,238.2 786.6,0" />
		<line
   id="right_leg"
   x1="739.59998"
   y1="876.59998"
   x2="500"
   y2="520.20001" />
		<line
   id="left_leg"
   x1="260.20001"
   y1="876.59998"
   x2="500"
   y2="520.20001" />
	</g>
	<g
   id="circles"
   class="c2"
   transform="translate(0.14748001,0.54819991)">
		<circle
   id="head"
   cx="500"
   cy="284.29999"
   r="114.9" />
		<circle
   id="right_hand"
   cx="932.20001"
   cy="374.10001"
   r="51.299999" />
		<circle
   id="left_hand"
   cx="67.599998"
   cy="374.10001"
   r="51.299999" />
		<circle
   id="right_foot"
   cx="739.59998"
   cy="876.59998"
   r="51.299999" />
		<circle
   id="left_foot"
   cx="260.20001"
   cy="876.59998"
   r="51.299999" />
	</g>
	<g
   id="arcs"
   transform="translate(0.14748001,0.54819991)">
		<path
   id="right_arc"
   d="m 807.6,802.4 c 8.2,7.5 15.1,16.3 20.5,26.1 87.3,-87 136.2,-205.3 135.9,-328.6 0,-10.1 -0.4,-20.1 -1,-30.1 -9.9,3.2 -20.3,4.8 -30.8,4.8 -0.6,0 -1.3,0 -1.9,0 0.5,8.4 0.8,16.8 0.8,25.3 0.2,113.2 -44.1,221.9 -123.5,302.5 z" />
		<path
   id="bottom_arc"
   d="m 498.6,932.4 c -48.7,0.1 -97,-8.1 -143,-24.1 -3.5,10.6 -8.8,20.5 -15.5,29.4 103.1,37 216,36.8 319,-0.7 -6.7,-8.9 -11.8,-18.9 -15.2,-29.5 -46.7,16.5 -95.8,24.9 -145.3,24.9 z" />
		<path
   id="left_arc"
   d="m 67,474.7 c -11.1,-0.1 -22.1,-2 -32.6,-5.6 -0.7,10.2 -1,20.5 -1,30.9 -0.4,123.5 48.7,241.9 136.2,329 0.4,0.4 0.8,0.8 1.2,1.2 5.2,-9.9 11.9,-18.9 20,-26.5 C 110.8,723 66,613.7 66.3,500 c 0,-8.5 0.2,-16.9 0.7,-25.3 z" />
		<path
   id="top_arc"
   d="m 827.6,171 c -181.7,-181.7 -476.3,-181.7 -658,0 0,0 0,0 0,0 -31.2,31.1 -57.8,66.5 -79.1,105.2 10.8,2.5 21.1,6.8 30.5,12.7 19.5,-34.7 43.7,-66.5 71.8,-94.6 168.9,-168.9 442.6,-168.9 611.5,0 0,0 0,0 0,0 28.5,28.4 52.9,60.7 72.5,95.8 C 886,284 896.2,279.5 907,276.7 885.7,237.9 859,202.3 827.6,171 Z" />
		</g>
</svg>
