<?xml version="1.0" encoding="UTF-8" standalone="no"?>
<!-- Generator: Adobe Illustrator 23.0.4, SVG Export Plug-In . SVG Version: 6.00 Build 0)  -->

<svg
   version="1.1"
   x="0px"
   y="0px"
   viewBox="0 0 262.40799 262.40799"
   xml:space="preserve"
   id="svg3845"
   sodipodi:docname="android.svg"
   width="262.40799"
   height="262.40799"
   inkscape:version="1.2.2 (b0a8486541, 2022-12-01)"
   xmlns:inkscape="http://www.inkscape.org/namespaces/inkscape"
   xmlns:sodipodi="http://sodipodi.sourceforge.net/DTD/sodipodi-0.dtd"
   xmlns="http://www.w3.org/2000/svg"
   xmlns:svg="http://www.w3.org/2000/svg"><defs
   id="defs3849" /><sodipodi:namedview
   id="namedview3847"
   pagecolor="#ffffff"
   bordercolor="#666666"
   borderopacity="1.0"
   inkscape:showpageshadow="2"
   inkscape:pageopacity="0.0"
   inkscape:pagecheckerboard="0"
   inkscape:deskcolor="#d1d1d1"
   showgrid="false"
   inkscape:zoom="1.0753036"
   inkscape:cx="-142.2854"
   inkscape:cy="-202.26846"
   inkscape:window-width="2560"
   inkscape:window-height="1382"
   inkscape:window-x="1920"
   inkscape:window-y="0"
   inkscape:window-maximized="1"
   inkscape:current-layer="g3837" />
<style
   type="text/css"
   id="style3833">
	.st0{fill:#3DDB85;}
	.st1{fill:none;}
</style>
<g
   id="Layer_1"
   transform="translate(-102.31914,-102.31916)">
	<g
   id="g3841">
		<g
   id="g3837">
			<path
   class="st0"
   d="m 293.91028,270.05639 c -6.02515,0 -10.92627,-4.90459 -10.92627,-10.92982 0,-6.02523 4.90112,-10.92628 10.92627,-10.92628 6.02536,0 10.92627,4.90105 10.92627,10.92628 0,6.02523 -4.90091,10.92982 -10.92627,10.92982 m -120.77423,0 c -6.02538,0 -10.92627,-4.90459 -10.92627,-10.92982 0,-6.02523 4.90089,-10.92628 10.92627,-10.92628 6.02515,0 10.92625,4.90105 10.92625,10.92628 0,6.02523 -4.90111,10.92982 -10.92625,10.92982 m 124.69308,-65.82016 21.83826,-37.82177 c 1.25195,-2.17392 0.50714,-4.95069 -1.66324,-6.2061 -2.17035,-1.25186 -4.95068,-0.50713 -6.20609,1.66323 l -22.11142,38.30052 c -16.909,-7.71684 -35.8996,-12.015 -56.1636,-12.015 -20.26378,0 -39.25438,4.29816 -56.16338,12.015 l -22.1114,-38.30052 c -1.25543,-2.17036 -4.03575,-2.91509 -6.20612,-1.66323 -2.17036,1.25541 -2.91862,4.03218 -1.66321,6.2061 l 21.83824,37.82177 c -37.49896,20.39503 -63.14611,58.35866 -66.89809,103.20929 h 262.40811 c -3.75542,-44.85064 -29.40257,-82.81426 -66.89806,-103.20929"
   id="path3835" />
		</g>
		<rect
   class="st1"
   width="467.04645"
   height="250.16389"
   id="rect3839"
   x="0"
   y="0" />
	</g>
</g>
<g
   id="Layer_2"
   transform="translate(-102.31914,-102.31916)">
</g>
</svg>
