<?xml version="1.0" encoding="UTF-8" standalone="no"?>
<svg
   width="1000"
   height="1000"
   version="1.1"
   id="svg3566"
   sodipodi:docname="apple.svg"
   inkscape:version="1.2.2 (b0a8486541, 2022-12-01)"
   xmlns:inkscape="http://www.inkscape.org/namespaces/inkscape"
   xmlns:sodipodi="http://sodipodi.sourceforge.net/DTD/sodipodi-0.dtd"
   xmlns="http://www.w3.org/2000/svg"
   xmlns:svg="http://www.w3.org/2000/svg">
  <defs
     id="defs3570" />
  <sodipodi:namedview
     id="namedview3568"
     pagecolor="#ffffff"
     bordercolor="#666666"
     borderopacity="1.0"
     inkscape:showpageshadow="2"
     inkscape:pageopacity="0.0"
     inkscape:pagecheckerboard="0"
     inkscape:deskcolor="#d1d1d1"
     showgrid="false"
     inkscape:zoom="0.52109312"
     inkscape:cx="-1.9190428"
     inkscape:cy="453.85362"
     inkscape:window-width="2560"
     inkscape:window-height="1382"
     inkscape:window-x="1920"
     inkscape:window-y="0"
     inkscape:window-maximized="1"
     inkscape:current-layer="svg3566" />
  <path
     fill="#666666"
     d="m 903.50632,779.30361 c -15.12299,34.93724 -33.02368,67.09674 -53.7638,96.66374 -28.27076,40.3074 -51.4182,68.2078 -69.25717,83.7012 -27.65347,25.4313 -57.2822,38.4556 -89.00964,39.1963 -22.77708,0 -50.24539,-6.4813 -82.21973,-19.629 -32.07926,-13.0861 -61.55985,-19.5673 -88.51583,-19.5673 -28.27075,0 -58.59083,6.4812 -91.02193,19.5673 -32.48053,13.1477 -58.64639,19.9994 -78.65196,20.6784 -30.42501,1.29625 -60.75123,-12.0985 -91.02193,-40.2457 -19.32039,-16.8514 -43.48632,-45.7394 -72.43607,-86.6641 C 156.54748,829.30205 131.01122,778.62462 111.00565,720.84859 89.580376,658.44307 78.83996,598.01281 78.83996,539.50843 c 0,-67.01648 14.481044,-124.8172 43.48634,-173.25401 22.7956,-38.90621 53.12184,-69.59664 91.07746,-92.12684 37.95566,-22.53016 78.96676,-34.01129 123.1321,-34.74585 24.16591,0 55.85633,7.47508 95.23784,22.166 39.27042,14.74029 64.48571,22.21538 75.54091,22.21538 8.26518,0 36.27668,-8.7405 83.7629,-26.16587 44.90607,-16.16001 82.80614,-22.85118 113.85458,-20.21546 84.13326,6.78992 147.34122,39.95559 189.37699,99.70686 -75.24463,45.59122 -112.46573,109.4473 -111.72502,191.36456 0.67899,63.8067 23.82643,116.90384 69.31888,159.06309 20.61664,19.56727 43.64066,34.69027 69.2571,45.4307 -5.55531,16.11062 -11.41933,31.54225 -17.65372,46.35662 z M 710.54922,20.005679 c 0,50.01141 -18.27108,96.706931 -54.6897,139.927821 -43.94932,51.38118 -97.10817,81.07162 -154.75459,76.38659 -0.73454,-5.99983 -1.16045,-12.31444 -1.16045,-18.95003 0,-48.01091 20.9006,-99.39207 58.01678,-141.403141 18.53027,-21.27094 42.09746,-38.95744 70.67685,-53.0663 C 657.15576,9.0022687 684.13026,1.3161887 709.49984,-2.1291337e-5 710.2406,6.6857287 710.54922,13.371889 710.54922,20.005029 Z"
     id="path3564" />
</svg>
