<?xml version="1.0" encoding="UTF-8" standalone="no"?>
<!-- Generator: Adobe Illustrator 12.0.1, SVG Export Plug-In . SVG Version: 6.00 Build 51448)  -->

<svg
   version="1.0"
   id="Layer_1"
   width="145.993"
   height="145.993"
   viewBox="0 0 145.993 145.99299"
   overflow="visible"
   enable-background="new 0 0 436.505 152.503"
   xml:space="preserve"
   sodipodi:docname="django.svg"
   inkscape:version="1.2.2 (b0a8486541, 2022-12-01)"
   xmlns:inkscape="http://www.inkscape.org/namespaces/inkscape"
   xmlns:sodipodi="http://sodipodi.sourceforge.net/DTD/sodipodi-0.dtd"
   xmlns="http://www.w3.org/2000/svg"
   xmlns:svg="http://www.w3.org/2000/svg"><defs
   id="defs2034" /><sodipodi:namedview
   id="namedview2032"
   pagecolor="#ffffff"
   bordercolor="#666666"
   borderopacity="1.0"
   inkscape:showpageshadow="2"
   inkscape:pageopacity="0.0"
   inkscape:pagecheckerboard="0"
   inkscape:deskcolor="#d1d1d1"
   showgrid="false"
   inkscape:zoom="2.9804927"
   inkscape:cx="223.7885"
   inkscape:cy="76.329661"
   inkscape:window-width="2560"
   inkscape:window-height="1382"
   inkscape:window-x="1920"
   inkscape:window-y="0"
   inkscape:window-maximized="1"
   inkscape:current-layer="g2027" />
<g
   id="g2029">
	<g
   id="g2027">
		<path
   fill="#092e20"
   d="m 63.062449,-7.5683594e-6 h 23.872 V 110.496 c -12.246,2.325 -21.237,3.255 -31.002,3.255 -29.143,-0.001 -44.334,-13.175 -44.334,-38.443008 0,-24.337 16.122,-40.147 41.078,-40.147 3.875,0 6.82,0.309 10.386,1.239 z m 0,55.6199995683594 c -2.79,-0.929 -5.115,-1.239 -8.06,-1.239 -12.091,0 -19.067,7.441 -19.067,20.461 0,12.712 6.666,19.687 18.912,19.687 2.634,0 4.805,-0.155 8.215,-0.619 z"
   id="path2015" />
		<path
   fill="#092e20"
   d="m 124.91045,36.864992 v 55.338 c 0,19.067008 -1.395,28.212008 -5.58,36.118008 -3.876,7.597 -8.992,12.401 -19.532001,17.672 l -22.167,-10.541 c 10.541,-4.96 15.656,-9.299 18.911,-15.967 3.411,-6.82 4.497001,-14.726 4.497001,-35.497008 v -47.123 z m -23.871,-36.73799956 h 23.871 V 24.618992 h -23.871 z"
   id="path2017" />
		
		
		
		
	</g>
</g>
</svg>
