<?xml version="1.0" encoding="UTF-8" standalone="no"?>
<svg
   width="47.424999"
   height="47.424999"
   version="1.0"
   id="svg2483"
   sodipodi:docname="orca.svg"
   inkscape:version="1.2.2 (b0a8486541, 2022-12-01)"
   xmlns:inkscape="http://www.inkscape.org/namespaces/inkscape"
   xmlns:sodipodi="http://sodipodi.sourceforge.net/DTD/sodipodi-0.dtd"
   xmlns:xlink="http://www.w3.org/1999/xlink"
   xmlns="http://www.w3.org/2000/svg"
   xmlns:svg="http://www.w3.org/2000/svg">
  <sodipodi:namedview
     id="namedview2485"
     pagecolor="#ffffff"
     bordercolor="#666666"
     borderopacity="1.0"
     inkscape:showpageshadow="2"
     inkscape:pageopacity="0.0"
     inkscape:pagecheckerboard="0"
     inkscape:deskcolor="#d1d1d1"
     showgrid="false"
     inkscape:zoom="5.1533506"
     inkscape:cx="37.451362"
     inkscape:cy="8.4411102"
     inkscape:window-width="2560"
     inkscape:window-height="1382"
     inkscape:window-x="1920"
     inkscape:window-y="0"
     inkscape:window-maximized="1"
     inkscape:current-layer="svg2483" />
  <defs
     id="defs2441">
    <linearGradient
       id="h">
      <stop
         offset="0"
         stop-color="#5b5b5b"
         id="stop2372" />
      <stop
         offset=".5"
         stop-color="#979797"
         id="stop2374" />
      <stop
         offset="1"
         stop-color="#454545"
         id="stop2376" />
    </linearGradient>
    <linearGradient
       id="f">
      <stop
         offset="0"
         stop-color="#ef2929"
         id="stop2379" />
      <stop
         offset=".5"
         stop-color="#f79090"
         id="stop2381" />
      <stop
         offset="1"
         stop-color="#ef2929"
         id="stop2383" />
    </linearGradient>
    <linearGradient
       xlink:href="#a"
       id="j"
       x1="32.169682"
       x2="36.310467"
       y1="32.340691"
       y2="37.614323"
       gradientTransform="matrix(0.9558,0.12561,-0.13219,1.00584,8.0663197,-3.7308195)"
       gradientUnits="userSpaceOnUse" />
    <linearGradient
       xlink:href="#b"
       id="k"
       x1="16.920895"
       x2="14.717065"
       y1="41.527054"
       y2="27.556486"
       gradientTransform="translate(-0.7528803,-1.4491195)"
       gradientUnits="userSpaceOnUse" />
    <linearGradient
       id="c">
      <stop
         offset="0"
         stop-color="#fff"
         stop-opacity=".69072163"
         id="stop2388" />
      <stop
         offset="1"
         stop-opacity="0"
         id="stop2390" />
    </linearGradient>
    <linearGradient
       xlink:href="#c"
       id="l"
       x1="5.5588484"
       x2="26.936853"
       y1="8.7893238"
       y2="48.565983"
       gradientTransform="matrix(1.01569,0,0,1,-0.7938803,-1.4491195)"
       gradientUnits="userSpaceOnUse" />
    <linearGradient
       id="b">
      <stop
         offset="0"
         stop-color="#788492"
         id="stop2394" />
      <stop
         offset="1"
         stop-color="#fafafa"
         id="stop2396" />
    </linearGradient>
    <linearGradient
       xlink:href="#b"
       id="m"
       x1="5.4860573"
       x2="12.296931"
       y1="32.173634"
       y2="27.665829"
       gradientTransform="matrix(1.29092,0,0,1.1733,-4.2210683,-7.2317925)"
       gradientUnits="userSpaceOnUse" />
    <linearGradient
       xlink:href="#d"
       id="n"
       x1="34.868965"
       x2="34.868965"
       y1="39.944828"
       y2="43.475861"
       gradientTransform="translate(-0.7528803,-1.4491195)"
       gradientUnits="userSpaceOnUse" />
    <linearGradient
       xlink:href="#d"
       id="o"
       x1="36.634483"
       x2="36.634483"
       y1="38.124138"
       y2="42.427586"
       gradientTransform="translate(-0.7528803,-1.4491195)"
       gradientUnits="userSpaceOnUse" />
    <linearGradient
       xlink:href="#d"
       id="p"
       x1="38.896549"
       x2="42.427586"
       y1="38.482758"
       y2="38.482758"
       gradientTransform="translate(-0.7528803,-1.4491195)"
       gradientUnits="userSpaceOnUse" />
    <linearGradient
       id="d">
      <stop
         offset="0"
         id="stop2403" />
      <stop
         offset="1"
         stop-opacity="0"
         id="stop2405" />
    </linearGradient>
    <linearGradient
       xlink:href="#d"
       id="q"
       x1="40.496552"
       x2="44.193104"
       y1="37.848274"
       y2="37.848274"
       gradientTransform="matrix(0.86474,0,0,0.7531,5.2247197,8.1610805)"
       gradientUnits="userSpaceOnUse" />
    <linearGradient
       xlink:href="#e"
       id="r"
       x1="-5.2845793"
       x2="33.728188"
       y1="19.362175"
       y2="66.499512"
       gradientTransform="matrix(0.9436,0,0,0.96337,6.4257197,5.1820805)"
       gradientUnits="userSpaceOnUse" />
    <linearGradient
       id="a">
      <stop
         offset="0"
         id="stop2410" />
      <stop
         offset="1"
         stop-color="#505050"
         id="stop2412" />
    </linearGradient>
    <linearGradient
       xlink:href="#a"
       id="w"
       x1="26.247757"
       x2="23.782515"
       y1="38.03194"
       y2="36.457325"
       gradientTransform="matrix(0,0.96742,0.94617,0,-16.461081,3.3662805)"
       gradientUnits="userSpaceOnUse" />
    <linearGradient
       id="e">
      <stop
         offset="0"
         stop-color="#fff"
         stop-opacity=".45038167"
         id="stop2416" />
      <stop
         offset="1"
         stop-color="#fff"
         stop-opacity=".31297711"
         id="stop2418" />
    </linearGradient>
    <linearGradient
       xlink:href="#e"
       id="x"
       x1="29.425014"
       x2="43.14069"
       y1="33.593369"
       y2="38.189564"
       gradientTransform="translate(-15.127881,-6.1991195)"
       gradientUnits="userSpaceOnUse" />
    <linearGradient
       id="i">
      <stop
         offset="0"
         stop-opacity=".17557251"
         id="stop2422" />
      <stop
         offset="1"
         stop-opacity="0"
         id="stop2424" />
    </linearGradient>
    <linearGradient
       id="g">
      <stop
         offset="0"
         stop-color="#ddd"
         id="stop2427" />
      <stop
         offset=".33333334"
         stop-color="#fff"
         id="stop2429" />
      <stop
         offset=".66666669"
         stop-color="#b7b7b7"
         id="stop2431" />
      <stop
         offset="1"
         stop-color="#ddd"
         id="stop2433" />
    </linearGradient>
    <linearGradient
       xlink:href="#f"
       id="s"
       x1="2.1018243"
       x2="4.1351514"
       y1="43.936359"
       y2="45.880901"
       gradientUnits="userSpaceOnUse" />
    <linearGradient
       xlink:href="#g"
       id="t"
       x1="19.394735"
       x2="22.225447"
       y1="30.001331"
       y2="32.643337"
       gradientTransform="translate(-13.78039,10.12853)"
       gradientUnits="userSpaceOnUse" />
    <linearGradient
       xlink:href="#h"
       id="u"
       x1="27.847828"
       x2="29.623844"
       y1="16.542765"
       y2="18.266338"
       gradientTransform="translate(11.0575,-11.78)"
       gradientUnits="userSpaceOnUse" />
    <linearGradient
       xlink:href="#g"
       id="v"
       x1="19.394735"
       x2="22.225447"
       y1="30.001331"
       y2="32.643337"
       gradientTransform="rotate(10,-13.030048,-38.85151)"
       gradientUnits="userSpaceOnUse" />
    <radialGradient
       xlink:href="#i"
       id="y"
       cx="20.152544"
       cy="33.636894"
       r="15.291184"
       fx="20.152544"
       fy="33.636894"
       gradientTransform="matrix(1,0,0,0.25722,0,24.98463)"
       gradientUnits="userSpaceOnUse" />
  </defs>
  <path
     fill="url(#j)"
     fill-rule="evenodd"
     stroke="#000000"
     d="m 1.3695695,33.91519 c 6.58853,1.98434 16.2355505,-0.80576 20.3975905,-3.02326 8.15311,-4.34393 11.55159,1.55978 12.66753,2.31089 1.72924,1.48159 -3.5638,5.53478 -3.22833,8.83486 0.18621,1.83184 0.932,2.72651 0.932,2.72651 1.46022,-4.13412 6.07551,-2.43828 5.80977,-6.74006 3.50411,1.97766 4.2558,-1.1722 8.3216,-0.54462 -0.57459,-0.87503 -1.31621,-2.17831 -2.91057,-2.86145 -1.69942,-0.63742 -4.57206,-0.54847 -5.31811,-2.71677 -0.1362,-2.45254 -0.09908,-15.53577 -6.01899,-19.53543 -0.86489,-1.742159 0.06845,-4.2244794 1.75168,-5.9204194 1.522,-1.5335 3.80827,-2.94569 4.59083,-3.8463 -3.5426,-0.03808 -7.07151,1.0716 -10.52618,2.94063 -1.80159,0.97469 -3.38797,2.37611 -4.51234,2.90059 C 13.17524,6.4273306 1.9853395,14.80582 0.85579949,29.50813 c -0.09115,1.1865 -0.07306,4.03942 0.51377001,4.40706 z"
     id="path2443"
     style="fill:url(#j)" />
  <path
     fill="url(#k)"
     fill-rule="evenodd"
     d="M 4.8668295,33.95898 C 11.25603,34.65206 17.84274,31.98699 21.90421,30.11837 c 7.07453,-3.30094 10.28132,0.17682 11.86465,1.69592 0.17329,0.23408 0.17166,-1.59232 -1.70203,-2.79383 -7.53362,-3.53451 2.02809,-3.56609 1.5203,-4.86389 -0.58423,-1.49315 -6.96257,-0.63649 -8.07545,-0.25378 -4.0001,1.37561 -5.40659,3.6149 -7.43981,4.03179 -3.74463,0.71235 -6.63769,-1.31015 -9.0052406,1.64618 -4.1386599,5.1679 -4.8463999,4.30808 -4.1997999,4.37822 z"
     id="path2445"
     style="fill:url(#k)" />
  <path
     fill="url(#l)"
     fill-rule="evenodd"
     d="M 1.9102795,33.16394 C 4.4541795,25.79482 13.07989,26.22504 16.48808,22.71588 19.84155,19.26306 23.60503,8.4702106 36.1937,19.86009 36.23972,19.90172 34.20866,14.06532 31.37184,12.13874 30.54293,10.460391 24.48399,8.4704606 23.4064,8.9757306 12.97076,7.0364306 2.5915995,15.81515 1.5090495,30.06735 c -0.08682,1.14308 -0.16119,2.74242 0.40123,3.09659 z"
     id="path2447"
     style="fill:url(#l)" />
  <path
     fill="url(#m)"
     fill-rule="evenodd"
     d="M 7.7429903,26.990961 C 7.069208,26.032766 10.372555,22.637297 11.545071,23.31789 c 0.71708,1.040291 -2.3101263,4.897428 -3.8020807,3.673071 z"
     id="path2449"
     style="fill:url(#m)" />
  <path
     fill="url(#n)"
     fill-rule="evenodd"
     d="m 33.78503,42.02678 0.66206,-0.49656 -0.05517,-3.03448 z"
     opacity="0.256281"
     id="path2451"
     style="fill:url(#n)" />
  <path
     fill="url(#o)"
     fill-rule="evenodd"
     d="m 35.49537,40.9785 0.77241,-0.38621 -0.49655,-3.91724 z"
     opacity="0.251256"
     id="path2453"
     style="fill:url(#o)" />
  <path
     fill="url(#p)"
     fill-rule="evenodd"
     d="M 40.79192,38.10953 41.67468,37.7785 38.14365,35.95781 Z"
     opacity="0.231156"
     id="path2455"
     style="fill:url(#p)" />
  <path
     fill="url(#q)"
     fill-rule="evenodd"
     d="m 42.53371,37.47505 0.90649,-0.2493 -3.19655,-1.37117 z"
     opacity="0.226131"
     id="path2457"
     style="fill:url(#q)" />
  <path
     fill="none"
     stroke="url(#r)"
     stroke-width="0.953433"
     d="m 2.5227595,33.16394 c 5.9517499,1.5581 14.5243205,-1.1298 18.4515905,-3.26608 7.69325,-4.18482 13.64008,1.59103 14.33952,3.28691 1.18976,1.6041 -1.21021,3.73034 -2.74982,6.82116 -0.79074,1.58743 -0.35801,2.53825 -0.35801,2.53825 1.34661,-1.94884 5.64,-1.12225 4.6705,-6.23338 3.89393,2.89894 5.18088,0.1457 7.47814,0.1619 -0.72968,-0.93673 -1.5295,-0.97091 -2.31517,-1.16028 -1.60357,-0.61408 -3.9231,-0.55872 -4.97082,-3.11634 -0.12851,-2.36272 0.49398,-13.99447 -5.79913,-19.17346 -1.08127,-1.3248 -0.91076,-3.9220294 0.76899,-6.1455194 0.49549,-0.65587 2.44442,-2.21908 3.18285,-3.0867 -3.07763,0.58204 -4.37456,1.12074 -7.63437,2.92132 -1.69997,0.93898 -2.84333,2.20068 -3.90428,2.70595 C 13.83933,7.6551506 4.2528595,14.57772 2.0379795,28.38797 c -0.18152,1.13181 -0.33411,4.4218 0.48478,4.77597 z"
     id="path2459"
     style="stroke:url(#r)" />
  <g
     stroke-linecap="round"
     color="#000000"
     transform="rotate(10,15.381242,21.419191)"
     id="g2469">
    <g
       transform="translate(3.782059,-4.305959)"
       id="g2465">
      <path
         fill="url(#s)"
         stroke="#cc0000"
         d="m 3.6678274,43.136096 1.71599,1.580267 c 1.049938,-1.200444 5.8079396,-6.277651 5.8079396,-6.277651 L 9.4548369,36.923036 c 0,0 -4.5092445,4.850979 -5.7870095,6.21306 z"
         overflow="visible"
         style="fill:url(#s);marker:none"
         id="path2461" />
      <path
         fill="url(#t)"
         stroke="#888a85"
         d="m 9.3798921,36.977632 1.7159899,1.580267 C 12.14582,37.357455 32.719517,15.450785 32.719517,15.450785 l -1.73692,-1.515676 c 0,0 -20.32494,21.680442 -21.6027049,23.042523 z"
         overflow="visible"
         style="fill:url(#t);marker:none"
         id="path2463" />
    </g>
    <path
       fill="url(#u)"
       stroke="#2e3436"
       d="m 34.676553,9.7053399 1.77849,1.4552671 C 37.504981,9.9601639 41.783263,5.5878763 42.1,5.110676 43.214868,4.1209793 41.493403,2.3741139 40.30058,3.72 39.73371,4.2605973 35.954318,8.3432589 34.676553,9.7053399 Z"
       overflow="visible"
       style="fill:url(#u);marker:none"
       id="path2467" />
  </g>
  <path
     fill="url(#v)"
     stroke="#888a85"
     stroke-linecap="round"
     d="M 2.759235,38.534193 C 1.363052,39.780051 2.318944,41.305831 4.174744,40.38843 4.5325706,40.215467 6.1243705,38.918865 6.1243705,38.918865 L 4.6578027,37.105372 c 0,0 -0.4036927,0.309314 -1.8985677,1.428821 z"
     color="#000000"
     overflow="visible"
     style="fill:url(#v);marker:none"
     id="path2471" />
  <path
     fill="none"
     stroke="#2e3436"
     d="m 45.013249,8.9084305 c 0,0 5,9.9999995 0,9.9999995 -5,0 0.250004,-5.000004 0,-9.9999995 z"
     id="path2473" />
  <path
     fill="#ffffff"
     d="m 3.2879427,39.451213 a 0.2973375,0.2973375 0 1 1 -0.594675,0 0.2973375,0.2973375 0 1 1 0.594675,0 z"
     color="#000000"
     opacity="0.533333"
     overflow="visible"
     style="stroke-width:0.23787;marker:none"
     id="path2475" />
  <path
     fill="url(#w)"
     fill-rule="evenodd"
     stroke="#000000"
     stroke-width="0.967441"
     d="m 19.08354,24.37226 c 2.71813,1.81279 9.4059,7.35877 6.23018,8.18601 C 14.6925,32.16854 16.53,27.41611 13.81621,26.68211 c -1.4638,-1.484 3.7992,-2.99764 5.26733,-2.30985 z"
     id="path2477"
     style="fill:url(#w)" />
  <path
     fill="none"
     stroke="url(#x)"
     stroke-width="0.967441"
     d="m 18.77971,25.28707 c 2.23199,1.63601 7.41717,5.67939 6.05341,6.46243 -4.09527,-0.54841 -6.17882,-1.15527 -7.25011,-2.34494 -1.34687,-1.49569 -1.78565,-2.85486 -2.789,-3.22186 -0.22636,0.0186 2.51757,-1.58342 3.9857,-0.89563 z"
     id="path2479"
     style="stroke:url(#x)" />
</svg>
